<svg width="41" height="42" viewBox="0 0 41 42" fill="none" xmlns="http://www.w3.org/2000/svg">
<g clip-path="url(#clip0_7_271)">
<path d="M32.4583 0H8.54167C3.82496 0 0 3.91825 0 8.75V33.25C0 38.0817 3.82496 42 8.54167 42H32.4583C37.1768 42 41 38.0817 41 33.25V8.75C41 3.91825 37.1768 0 32.4583 0ZM13.6667 33.25H8.54167V14H13.6667V33.25ZM11.1042 11.781C9.45392 11.781 8.11458 10.3985 8.11458 8.694C8.11458 6.9895 9.45392 5.607 11.1042 5.607C12.7544 5.607 14.0938 6.9895 14.0938 8.694C14.0938 10.3985 12.7561 11.781 11.1042 11.781ZM34.1667 33.25H29.0417V23.443C29.0417 17.549 22.2083 17.9953 22.2083 23.443V33.25H17.0833V14H22.2083V17.0888C24.5932 12.5633 34.1667 12.229 34.1667 21.4218V33.25Z" fill="#387465"/>
</g>
<defs>
<clipPath id="clip0_7_271">
<rect width="41" height="42" fill="white"/>
</clipPath>
</defs>
</svg>
